<?xml version="1.0"?>
<!-- Generated by SVGo -->
<svg width="128.013mm" height="145.063mm"
     viewBox="0.000 0.000 128.013 145.063"
     xmlns="http://www.w3.org/2000/svg" 
     xmlns:xlink="http://www.w3.org/1999/xlink">
<polygon points="123.013,140.063 5.000,140.063 5.000,5.000 123.013,5.000" style="fill:none;stroke-width:0.050000mm;stroke:black"/>
<polygon points="118.395,134.161 117.837,134.445 117.395,134.887 117.111,135.445 117.013,136.063 117.111,136.681 117.395,137.239 117.837,137.681 118.395,137.965 119.013,138.063 119.631,137.965 120.189,137.681 120.631,137.239 120.915,136.681 121.013,136.063 120.915,135.445 120.631,134.887 120.189,134.445 119.631,134.161 119.013,134.063" style="fill:none;stroke-width:0.050000mm;stroke:black"/>
<polygon points="63.388,134.161 62.831,134.445 62.388,134.887 62.104,135.445 62.006,136.063 62.104,136.681 62.388,137.239 62.831,137.681 63.388,137.965 64.006,138.063 64.623,137.965 65.182,137.681 65.624,137.239 65.908,136.681 66.006,136.063 65.908,135.445 65.624,134.887 65.182,134.445 64.623,134.161 64.006,134.063" style="fill:none;stroke-width:0.050000mm;stroke:black"/>
<polygon points="8.381,134.161 7.824,134.445 7.381,134.887 7.097,135.445 6.999,136.063 7.097,136.681 7.381,137.239 7.824,137.681 8.381,137.965 9.000,138.063 9.618,137.965 10.175,137.681 10.618,137.239 10.902,136.681 11.000,136.063 10.902,135.445 10.618,134.887 10.175,134.445 9.618,134.161 9.000,134.063" style="fill:none;stroke-width:0.050000mm;stroke:black"/>
<polygon points="26.049,115.537 26.049,116.537 25.249,116.537 25.249,119.637 26.049,119.637 26.049,120.237 24.525,120.237 24.525,117.007 22.799,117.007 22.799,116.087 19.499,116.087 19.499,117.007 17.775,117.007 17.775,120.237 16.949,120.237 16.949,123.037 17.775,123.037 17.775,129.306 19.499,129.306 19.499,130.287 22.799,130.287 22.799,129.306 24.525,129.306 24.525,124.837 26.049,124.837 26.049,125.437 25.249,125.437 25.249,128.537 26.049,128.537 26.049,129.537 40.050,129.537 40.050,128.537 40.849,128.537 40.849,125.437 40.050,125.437 40.050,124.837 41.574,124.837 41.574,129.306 43.300,129.306 43.300,130.287 46.599,130.287 46.599,129.306 48.324,129.306 48.324,123.037 49.150,123.037 49.150,120.237 48.324,120.237 48.324,117.007 46.599,117.007 46.599,116.087 43.300,116.087 43.300,117.007 41.574,117.007 41.574,120.237 40.050,120.237 40.050,119.637 40.849,119.637 40.849,116.537 40.050,116.537 40.050,115.537" style="fill:none;stroke-width:0.050000mm;stroke:black"/>
<polygon points="54.625,115.537 54.625,116.537 53.825,116.537 53.825,119.637 54.625,119.637 54.625,125.437 53.825,125.437 53.825,128.537 54.625,128.537 54.625,129.537 68.625,129.537 68.625,128.537 69.425,128.537 69.425,125.437 68.625,125.437 68.625,119.637 69.425,119.637 69.425,116.537 68.625,116.537 68.625,115.537" style="fill:none;stroke-width:0.050000mm;stroke:black"/>
<polygon points="97.487,115.537 97.487,116.537 96.687,116.537 96.687,119.637 97.487,119.637 97.487,125.437 96.687,125.437 96.687,128.537 97.487,128.537 97.487,129.537 111.487,129.537 111.487,128.537 112.287,128.537 112.287,125.437 111.487,125.437 111.487,119.637 112.287,119.637 112.287,116.537 111.487,116.537 111.487,115.537" style="fill:none;stroke-width:0.050000mm;stroke:black"/>
<polygon points="80.175,96.912 80.175,97.737 73.905,97.737 73.905,99.462 72.925,99.462 72.925,102.762 73.905,102.762 73.905,104.487 78.375,104.487 78.375,106.012 77.774,106.012 77.774,105.212 74.675,105.212 74.675,106.012 73.675,106.012 73.675,120.012 74.675,120.012 74.675,120.812 77.774,120.812 77.774,120.012 78.375,120.012 78.375,121.537 73.905,121.537 73.905,123.262 72.925,123.262 72.925,126.562 73.905,126.562 73.905,128.287 80.175,128.287 80.175,129.112 82.975,129.112 82.975,128.287 86.205,128.287 86.205,126.562 87.125,126.562 87.125,123.262 86.205,123.262 86.205,121.537 82.975,121.537 82.975,120.012 83.575,120.012 83.575,120.812 86.675,120.812 86.675,120.012 87.675,120.012 87.675,106.012 86.675,106.012 86.675,105.212 83.575,105.212 83.575,106.012 82.975,106.012 82.975,104.487 86.205,104.487 86.205,102.762 87.125,102.762 87.125,99.462 86.205,99.462 86.205,97.737 82.975,97.737 82.975,96.912" style="fill:none;stroke-width:0.050000mm;stroke:black"/>
<polygon points="16.525,96.487 16.525,97.487 15.724,97.487 15.724,100.587 16.525,100.587 16.525,106.387 15.724,106.387 15.724,109.487 16.525,109.487 16.525,110.487 30.525,110.487 30.525,109.487 31.325,109.487 31.325,106.387 30.525,106.387 30.525,100.587 31.325,100.587 31.325,97.487 30.525,97.487 30.525,96.487" style="fill:none;stroke-width:0.050000mm;stroke:black"/>
<polygon points="35.575,96.487 35.575,97.487 34.775,97.487 34.775,100.587 35.575,100.587 35.575,106.387 34.775,106.387 34.775,109.487 35.575,109.487 35.575,110.487 49.575,110.487 49.575,109.487 50.375,109.487 50.375,106.387 49.575,106.387 49.575,100.587 50.375,100.587 50.375,97.487 49.575,97.487 49.575,96.487" style="fill:none;stroke-width:0.050000mm;stroke:black"/>
<polygon points="54.625,96.487 54.625,97.487 53.825,97.487 53.825,100.587 54.625,100.587 54.625,106.387 53.825,106.387 53.825,109.487 54.625,109.487 54.625,110.487 68.625,110.487 68.625,109.487 69.425,109.487 69.425,106.387 68.625,106.387 68.625,100.587 69.425,100.587 69.425,97.487 68.625,97.487 68.625,96.487" style="fill:none;stroke-width:0.050000mm;stroke:black"/>
<polygon points="97.487,96.487 97.487,97.487 96.687,97.487 96.687,100.587 97.487,100.587 97.487,106.387 96.687,106.387 96.687,109.487 97.487,109.487 97.487,110.487 111.487,110.487 111.487,109.487 112.287,109.487 112.287,106.387 111.487,106.387 111.487,100.587 112.287,100.587 112.287,97.487 111.487,97.487 111.487,96.487" style="fill:none;stroke-width:0.050000mm;stroke:black"/>
<polygon points="16.525,77.437 16.525,78.437 15.724,78.437 15.724,81.537 16.525,81.537 16.525,87.337 15.724,87.337 15.724,90.437 16.525,90.437 16.525,91.437 30.525,91.437 30.525,90.437 31.325,90.437 31.325,87.337 30.525,87.337 30.525,81.537 31.325,81.537 31.325,78.437 30.525,78.437 30.525,77.437" style="fill:none;stroke-width:0.050000mm;stroke:black"/>
<polygon points="35.575,77.437 35.575,78.437 34.775,78.437 34.775,81.537 35.575,81.537 35.575,87.337 34.775,87.337 34.775,90.437 35.575,90.437 35.575,91.437 49.575,91.437 49.575,90.437 50.375,90.437 50.375,87.337 49.575,87.337 49.575,81.537 50.375,81.537 50.375,78.437 49.575,78.437 49.575,77.437" style="fill:none;stroke-width:0.050000mm;stroke:black"/>
<polygon points="54.625,77.437 54.625,78.437 53.825,78.437 53.825,81.537 54.625,81.537 54.625,87.337 53.825,87.337 53.825,90.437 54.625,90.437 54.625,91.437 68.625,91.437 68.625,90.437 69.425,90.437 69.425,87.337 68.625,87.337 68.625,81.537 69.425,81.537 69.425,78.437 68.625,78.437 68.625,77.437" style="fill:none;stroke-width:0.050000mm;stroke:black"/>
<polygon points="97.487,77.437 97.487,78.437 96.687,78.437 96.687,81.537 97.487,81.537 97.487,87.337 96.687,87.337 96.687,90.437 97.487,90.437 97.487,91.437 111.487,91.437 111.487,90.437 112.287,90.437 112.287,87.337 111.487,87.337 111.487,81.537 112.287,81.537 112.287,78.437 111.487,78.437 111.487,77.437" style="fill:none;stroke-width:0.050000mm;stroke:black"/>
<polygon points="80.175,58.812 80.175,59.637 73.905,59.637 73.905,61.362 72.925,61.362 72.925,64.662 73.905,64.662 73.905,66.387 78.375,66.387 78.375,67.912 77.774,67.912 77.774,67.112 74.675,67.112 74.675,67.912 73.675,67.912 73.675,81.912 74.675,81.912 74.675,82.712 77.774,82.712 77.774,81.912 78.375,81.912 78.375,83.437 73.905,83.437 73.905,85.162 72.925,85.162 72.925,88.462 73.905,88.462 73.905,90.187 80.175,90.187 80.175,91.012 82.975,91.012 82.975,90.187 86.205,90.187 86.205,88.462 87.125,88.462 87.125,85.162 86.205,85.162 86.205,83.437 82.975,83.437 82.975,81.912 83.575,81.912 83.575,82.712 86.675,82.712 86.675,81.912 87.675,81.912 87.675,67.912 86.675,67.912 86.675,67.112 83.575,67.112 83.575,67.912 82.975,67.912 82.975,66.387 86.205,66.387 86.205,64.662 87.125,64.662 87.125,61.362 86.205,61.362 86.205,59.637 82.975,59.637 82.975,58.812" style="fill:none;stroke-width:0.050000mm;stroke:black"/>
<polygon points="118.395,70.629 117.837,70.913 117.395,71.356 117.111,71.913 117.013,72.531 117.111,73.149 117.395,73.707 117.837,74.149 118.395,74.433 119.013,74.531 119.631,74.433 120.189,74.149 120.631,73.707 120.915,73.149 121.013,72.531 120.915,71.913 120.631,71.356 120.189,70.913 119.631,70.629 119.013,70.531" style="fill:none;stroke-width:0.050000mm;stroke:black"/>
<polygon points="8.381,70.629 7.824,70.913 7.381,71.356 7.097,71.913 6.999,72.531 7.097,73.149 7.381,73.707 7.824,74.149 8.381,74.433 9.000,74.531 9.618,74.433 10.175,74.149 10.618,73.707 10.902,73.149 11.000,72.531 10.902,71.913 10.618,71.356 10.175,70.913 9.618,70.629 9.000,70.531" style="fill:none;stroke-width:0.050000mm;stroke:black"/>
<polygon points="16.525,58.387 16.525,59.387 15.724,59.387 15.724,62.487 16.525,62.487 16.525,68.287 15.724,68.287 15.724,71.387 16.525,71.387 16.525,72.387 30.525,72.387 30.525,71.387 31.325,71.387 31.325,68.287 30.525,68.287 30.525,62.487 31.325,62.487 31.325,59.387 30.525,59.387 30.525,58.387" style="fill:none;stroke-width:0.050000mm;stroke:black"/>
<polygon points="35.575,58.387 35.575,59.387 34.775,59.387 34.775,62.487 35.575,62.487 35.575,68.287 34.775,68.287 34.775,71.387 35.575,71.387 35.575,72.387 49.575,72.387 49.575,71.387 50.375,71.387 50.375,68.287 49.575,68.287 49.575,62.487 50.375,62.487 50.375,59.387 49.575,59.387 49.575,58.387" style="fill:none;stroke-width:0.050000mm;stroke:black"/>
<polygon points="54.625,58.387 54.625,59.387 53.825,59.387 53.825,62.487 54.625,62.487 54.625,68.287 53.825,68.287 53.825,71.387 54.625,71.387 54.625,72.387 68.625,72.387 68.625,71.387 69.425,71.387 69.425,68.287 68.625,68.287 68.625,62.487 69.425,62.487 69.425,59.387 68.625,59.387 68.625,58.387" style="fill:none;stroke-width:0.050000mm;stroke:black"/>
<polygon points="97.487,58.387 97.487,59.387 96.687,59.387 96.687,62.487 97.487,62.487 97.487,68.287 96.687,68.287 96.687,71.387 97.487,71.387 97.487,72.387 111.487,72.387 111.487,71.387 112.287,71.387 112.287,68.287 111.487,68.287 111.487,62.487 112.287,62.487 112.287,59.387 111.487,59.387 111.487,58.387" style="fill:none;stroke-width:0.050000mm;stroke:black"/>
<polygon points="16.525,39.337 16.525,40.337 15.724,40.337 15.724,43.437 16.525,43.437 16.525,49.237 15.724,49.237 15.724,52.337 16.525,52.337 16.525,53.337 30.525,53.337 30.525,52.337 31.325,52.337 31.325,49.237 30.525,49.237 30.525,43.437 31.325,43.437 31.325,40.337 30.525,40.337 30.525,39.337" style="fill:none;stroke-width:0.050000mm;stroke:black"/>
<polygon points="35.575,39.337 35.575,40.337 34.775,40.337 34.775,43.437 35.575,43.437 35.575,49.237 34.775,49.237 34.775,52.337 35.575,52.337 35.575,53.337 49.575,53.337 49.575,52.337 50.375,52.337 50.375,49.237 49.575,49.237 49.575,43.437 50.375,43.437 50.375,40.337 49.575,40.337 49.575,39.337" style="fill:none;stroke-width:0.050000mm;stroke:black"/>
<polygon points="54.625,39.337 54.625,40.337 53.825,40.337 53.825,43.437 54.625,43.437 54.625,49.237 53.825,49.237 53.825,52.337 54.625,52.337 54.625,53.337 68.625,53.337 68.625,52.337 69.425,52.337 69.425,49.237 68.625,49.237 68.625,43.437 69.425,43.437 69.425,40.337 68.625,40.337 68.625,39.337" style="fill:none;stroke-width:0.050000mm;stroke:black"/>
<polygon points="73.675,39.337 73.675,40.337 72.875,40.337 72.875,43.437 73.675,43.437 73.675,49.237 72.875,49.237 72.875,52.337 73.675,52.337 73.675,53.337 87.675,53.337 87.675,52.337 88.475,52.337 88.475,49.237 87.675,49.237 87.675,43.437 88.475,43.437 88.475,40.337 87.675,40.337 87.675,39.337" style="fill:none;stroke-width:0.050000mm;stroke:black"/>
<polygon points="97.487,39.337 97.487,40.337 96.687,40.337 96.687,43.437 97.487,43.437 97.487,49.237 96.687,49.237 96.687,52.337 97.487,52.337 97.487,53.337 111.487,53.337 111.487,52.337 112.287,52.337 112.287,49.237 111.487,49.237 111.487,43.437 112.287,43.437 112.287,40.337 111.487,40.337 111.487,39.337" style="fill:none;stroke-width:0.050000mm;stroke:black"/>
<polygon points="16.525,15.524 16.525,16.525 15.724,16.525 15.724,19.625 16.525,19.625 16.525,25.424 15.724,25.424 15.724,28.525 16.525,28.525 16.525,29.525 30.525,29.525 30.525,28.525 31.325,28.525 31.325,25.424 30.525,25.424 30.525,19.625 31.325,19.625 31.325,16.525 30.525,16.525 30.525,15.524" style="fill:none;stroke-width:0.050000mm;stroke:black"/>
<polygon points="35.575,15.524 35.575,16.525 34.775,16.525 34.775,19.625 35.575,19.625 35.575,25.424 34.775,25.424 34.775,28.525 35.575,28.525 35.575,29.525 49.575,29.525 49.575,28.525 50.375,28.525 50.375,25.424 49.575,25.424 49.575,19.625 50.375,19.625 50.375,16.525 49.575,16.525 49.575,15.524" style="fill:none;stroke-width:0.050000mm;stroke:black"/>
<polygon points="54.625,15.524 54.625,16.525 53.825,16.525 53.825,19.625 54.625,19.625 54.625,25.424 53.825,25.424 53.825,28.525 54.625,28.525 54.625,29.525 68.625,29.525 68.625,28.525 69.425,28.525 69.425,25.424 68.625,25.424 68.625,19.625 69.425,19.625 69.425,16.525 68.625,16.525 68.625,15.524" style="fill:none;stroke-width:0.050000mm;stroke:black"/>
<polygon points="73.675,15.524 73.675,16.525 72.875,16.525 72.875,19.625 73.675,19.625 73.675,25.424 72.875,25.424 72.875,28.525 73.675,28.525 73.675,29.525 87.675,29.525 87.675,28.525 88.475,28.525 88.475,25.424 87.675,25.424 87.675,19.625 88.475,19.625 88.475,16.525 87.675,16.525 87.675,15.524" style="fill:none;stroke-width:0.050000mm;stroke:black"/>
<polygon points="97.487,15.524 97.487,16.525 96.687,16.525 96.687,19.625 97.487,19.625 97.487,25.424 96.687,25.424 96.687,28.525 97.487,28.525 97.487,29.525 111.487,29.525 111.487,28.525 112.287,28.525 112.287,25.424 111.487,25.424 111.487,19.625 112.287,19.625 112.287,16.525 111.487,16.525 111.487,15.524" style="fill:none;stroke-width:0.050000mm;stroke:black"/>
<polygon points="63.388,7.097 62.831,7.381 62.388,7.824 62.104,8.381 62.006,9.000 62.104,9.618 62.388,10.175 62.831,10.618 63.388,10.902 64.006,11.000 64.623,10.902 65.182,10.618 65.624,10.175 65.908,9.618 66.006,9.000 65.908,8.381 65.624,7.824 65.182,7.381 64.623,7.097 64.006,7.000" style="fill:none;stroke-width:0.050000mm;stroke:black"/>
<polygon points="118.395,7.097 117.837,7.381 117.395,7.824 117.111,8.381 117.013,9.000 117.111,9.618 117.395,10.175 117.837,10.618 118.395,10.902 119.013,11.000 119.631,10.902 120.189,10.618 120.631,10.175 120.915,9.618 121.013,9.000 120.915,8.381 120.631,7.824 120.189,7.381 119.631,7.097 119.013,7.000" style="fill:none;stroke-width:0.050000mm;stroke:black"/>
<polygon points="8.381,7.097 7.824,7.381 7.381,7.824 7.097,8.381 6.999,9.000 7.097,9.618 7.381,10.175 7.824,10.618 8.381,10.902 9.000,11.000 9.618,10.902 10.175,10.618 10.618,10.175 10.902,9.618 11.000,9.000 10.902,8.381 10.618,7.824 10.175,7.381 9.618,7.097 9.000,7.000" style="fill:none;stroke-width:0.050000mm;stroke:black"/>
</svg>
