<?xml version="1.0"?>
<!-- Generated by SVGo -->
<svg width="128.013mm" height="145.063mm"
     viewBox="0.000 0.000 128.013 145.063"
     xmlns="http://www.w3.org/2000/svg" 
     xmlns:xlink="http://www.w3.org/1999/xlink">
<polygon points="123.013,140.063 5.000,140.063 5.000,5.000 123.013,5.000" style="fill:none;stroke-width:0.050000mm;stroke:black"/>
<polygon points="118.395,134.161 117.837,134.445 117.395,134.887 117.111,135.445 117.013,136.063 117.111,136.681 117.395,137.239 117.837,137.681 118.395,137.965 119.013,138.063 119.631,137.965 120.189,137.681 120.631,137.239 120.915,136.681 121.013,136.063 120.915,135.445 120.631,134.887 120.189,134.445 119.631,134.161 119.013,134.063" style="fill:none;stroke-width:0.050000mm;stroke:black"/>
<polygon points="63.388,134.161 62.831,134.445 62.388,134.887 62.104,135.445 62.006,136.063 62.104,136.681 62.388,137.239 62.831,137.681 63.388,137.965 64.006,138.063 64.623,137.965 65.182,137.681 65.624,137.239 65.908,136.681 66.006,136.063 65.908,135.445 65.624,134.887 65.182,134.445 64.623,134.161 64.006,134.063" style="fill:none;stroke-width:0.050000mm;stroke:black"/>
<polygon points="8.381,134.161 7.824,134.445 7.381,134.887 7.097,135.445 6.999,136.063 7.097,136.681 7.381,137.239 7.824,137.681 8.381,137.965 9.000,138.063 9.618,137.965 10.175,137.681 10.618,137.239 10.902,136.681 11.000,136.063 10.902,135.445 10.618,134.887 10.175,134.445 9.618,134.161 9.000,134.063" style="fill:none;stroke-width:0.050000mm;stroke:black"/>
<polygon points="118.395,70.629 117.837,70.913 117.395,71.356 117.111,71.913 117.013,72.531 117.111,73.149 117.395,73.707 117.837,74.149 118.395,74.433 119.013,74.531 119.631,74.433 120.189,74.149 120.631,73.707 120.915,73.149 121.013,72.531 120.915,71.913 120.631,71.356 120.189,70.913 119.631,70.629 119.013,70.531" style="fill:none;stroke-width:0.050000mm;stroke:black"/>
<polygon points="8.381,70.629 7.824,70.913 7.381,71.356 7.097,71.913 6.999,72.531 7.097,73.149 7.381,73.707 7.824,74.149 8.381,74.433 9.000,74.531 9.618,74.433 10.175,74.149 10.618,73.707 10.902,73.149 11.000,72.531 10.902,71.913 10.618,71.356 10.175,70.913 9.618,70.629 9.000,70.531" style="fill:none;stroke-width:0.050000mm;stroke:black"/>
<polygon points="63.388,7.097 62.831,7.381 62.388,7.824 62.104,8.381 62.006,9.000 62.104,9.618 62.388,10.175 62.831,10.618 63.388,10.902 64.006,11.000 64.623,10.902 65.182,10.618 65.624,10.175 65.908,9.618 66.006,9.000 65.908,8.381 65.624,7.824 65.182,7.381 64.623,7.097 64.006,7.000" style="fill:none;stroke-width:0.050000mm;stroke:black"/>
<polygon points="118.395,7.097 117.837,7.381 117.395,7.824 117.111,8.381 117.013,9.000 117.111,9.618 117.395,10.175 117.837,10.618 118.395,10.902 119.013,11.000 119.631,10.902 120.189,10.618 120.631,10.175 120.915,9.618 121.013,9.000 120.915,8.381 120.631,7.824 120.189,7.381 119.631,7.097 119.013,7.000" style="fill:none;stroke-width:0.050000mm;stroke:black"/>
<polygon points="8.381,7.097 7.824,7.381 7.381,7.824 7.097,8.381 6.999,9.000 7.097,9.618 7.381,10.175 7.824,10.618 8.381,10.902 9.000,11.000 9.618,10.902 10.175,10.618 10.618,10.175 10.902,9.618 11.000,9.000 10.902,8.381 10.618,7.824 10.175,7.381 9.618,7.097 9.000,7.000" style="fill:none;stroke-width:0.050000mm;stroke:black"/>
</svg>
