<?xml version="1.0"?>
<!-- Generated by SVGo -->
<svg width="120.013mm" height="139.063mm"
     viewBox="0.000 0.000 120.013 139.063"
     xmlns="http://www.w3.org/2000/svg" 
     xmlns:xlink="http://www.w3.org/1999/xlink">
<polygon points="115.013,134.063 5.000,134.063 5.000,5.000 115.013,5.000" style="fill:none;stroke-width:0.050000mm;stroke:black"/>
<polygon points="112.127,130.374 111.778,130.551 111.502,130.828 111.324,131.177 111.263,131.563 111.324,131.949 111.502,132.298 111.778,132.574 112.127,132.752 112.513,132.813 112.899,132.752 113.248,132.574 113.524,132.298 113.702,131.949 113.763,131.563 113.702,131.177 113.524,130.828 113.248,130.551 112.899,130.374 112.513,130.312" style="fill:none;stroke-width:0.050000mm;stroke:black"/>
<polygon points="7.113,130.374 6.765,130.551 6.488,130.828 6.311,131.177 6.249,131.563 6.311,131.949 6.488,132.298 6.765,132.574 7.113,132.752 7.499,132.813 7.886,132.752 8.234,132.574 8.511,132.298 8.688,131.949 8.750,131.563 8.688,131.177 8.511,130.828 8.234,130.551 7.886,130.374 7.500,130.312" style="fill:none;stroke-width:0.050000mm;stroke:black"/>
<polygon points="22.050,112.537 22.050,117.237 20.525,117.237 20.525,114.007 18.800,114.007 18.800,113.087 15.500,113.087 15.500,114.007 13.775,114.007 13.775,117.237 12.950,117.237 12.950,120.037 13.775,120.037 13.775,126.307 15.500,126.307 15.500,127.287 18.800,127.287 18.800,126.307 20.525,126.307 20.525,121.837 22.050,121.837 22.050,126.537 36.050,126.537 36.050,121.837 37.575,121.837 37.575,126.307 39.300,126.307 39.300,127.287 42.600,127.287 42.600,126.307 44.325,126.307 44.325,120.037 45.150,120.037 45.150,117.237 44.325,117.237 44.325,114.007 42.600,114.007 42.600,113.087 39.300,113.087 39.300,114.007 37.575,114.007 37.575,117.237 36.050,117.237 36.050,112.537" style="fill:none;stroke-width:0.050000mm;stroke:black"/>
<polygon points="50.625,112.537 50.625,126.537 64.625,126.537 64.625,112.537" style="fill:none;stroke-width:0.050000mm;stroke:black"/>
<polygon points="93.487,112.537 93.487,126.537 107.487,126.537 107.487,112.537" style="fill:none;stroke-width:0.050000mm;stroke:black"/>
<polygon points="76.175,93.912 76.175,94.737 69.905,94.737 69.905,96.462 68.925,96.462 68.925,99.762 69.905,99.762 69.905,101.487 74.375,101.487 74.375,103.012 69.675,103.012 69.675,117.012 74.375,117.012 74.375,118.537 69.905,118.537 69.905,120.262 68.925,120.262 68.925,123.562 69.905,123.562 69.905,125.287 76.175,125.287 76.175,126.112 78.975,126.112 78.975,125.287 82.205,125.287 82.205,123.562 83.125,123.562 83.125,120.262 82.205,120.262 82.205,118.537 78.975,118.537 78.975,117.012 83.675,117.012 83.675,103.012 78.975,103.012 78.975,101.487 82.205,101.487 82.205,99.762 83.125,99.762 83.125,96.462 82.205,96.462 82.205,94.737 78.975,94.737 78.975,93.912" style="fill:none;stroke-width:0.050000mm;stroke:black"/>
<polygon points="12.524,93.487 12.524,107.487 26.525,107.487 26.525,93.487" style="fill:none;stroke-width:0.050000mm;stroke:black"/>
<polygon points="31.575,93.487 31.575,107.487 45.575,107.487 45.575,93.487" style="fill:none;stroke-width:0.050000mm;stroke:black"/>
<polygon points="50.625,93.487 50.625,107.487 64.625,107.487 64.625,93.487" style="fill:none;stroke-width:0.050000mm;stroke:black"/>
<polygon points="93.487,93.487 93.487,107.487 107.487,107.487 107.487,93.487" style="fill:none;stroke-width:0.050000mm;stroke:black"/>
<polygon points="12.524,74.437 12.524,88.437 26.525,88.437 26.525,74.437" style="fill:none;stroke-width:0.050000mm;stroke:black"/>
<polygon points="31.575,74.437 31.575,88.437 45.575,88.437 45.575,74.437" style="fill:none;stroke-width:0.050000mm;stroke:black"/>
<polygon points="50.625,74.437 50.625,88.437 64.625,88.437 64.625,74.437" style="fill:none;stroke-width:0.050000mm;stroke:black"/>
<polygon points="93.487,74.437 93.487,88.437 107.487,88.437 107.487,74.437" style="fill:none;stroke-width:0.050000mm;stroke:black"/>
<polygon points="76.175,55.812 76.175,56.637 69.905,56.637 69.905,58.362 68.925,58.362 68.925,61.662 69.905,61.662 69.905,63.387 74.375,63.387 74.375,64.912 69.675,64.912 69.675,78.912 74.375,78.912 74.375,80.437 69.905,80.437 69.905,82.162 68.925,82.162 68.925,85.462 69.905,85.462 69.905,87.187 76.175,87.187 76.175,88.012 78.975,88.012 78.975,87.187 82.205,87.187 82.205,85.462 83.125,85.462 83.125,82.162 82.205,82.162 82.205,80.437 78.975,80.437 78.975,78.912 83.675,78.912 83.675,64.912 78.975,64.912 78.975,63.387 82.205,63.387 82.205,61.662 83.125,61.662 83.125,58.362 82.205,58.362 82.205,56.637 78.975,56.637 78.975,55.812" style="fill:none;stroke-width:0.050000mm;stroke:black"/>
<polygon points="12.524,55.387 12.524,69.387 26.525,69.387 26.525,55.387" style="fill:none;stroke-width:0.050000mm;stroke:black"/>
<polygon points="31.575,55.387 31.575,69.387 45.575,69.387 45.575,55.387" style="fill:none;stroke-width:0.050000mm;stroke:black"/>
<polygon points="50.625,55.387 50.625,69.387 64.625,69.387 64.625,55.387" style="fill:none;stroke-width:0.050000mm;stroke:black"/>
<polygon points="93.487,55.387 93.487,69.387 107.487,69.387 107.487,55.387" style="fill:none;stroke-width:0.050000mm;stroke:black"/>
<polygon points="12.524,36.337 12.524,50.337 26.525,50.337 26.525,36.337" style="fill:none;stroke-width:0.050000mm;stroke:black"/>
<polygon points="31.575,36.337 31.575,50.337 45.575,50.337 45.575,36.337" style="fill:none;stroke-width:0.050000mm;stroke:black"/>
<polygon points="50.625,36.337 50.625,50.337 64.625,50.337 64.625,36.337" style="fill:none;stroke-width:0.050000mm;stroke:black"/>
<polygon points="69.675,36.337 69.675,50.337 83.675,50.337 83.675,36.337" style="fill:none;stroke-width:0.050000mm;stroke:black"/>
<polygon points="93.487,36.337 93.487,50.337 107.487,50.337 107.487,36.337" style="fill:none;stroke-width:0.050000mm;stroke:black"/>
<polygon points="12.524,12.524 12.524,26.525 26.525,26.525 26.525,12.524" style="fill:none;stroke-width:0.050000mm;stroke:black"/>
<polygon points="31.575,12.524 31.575,26.525 45.575,26.525 45.575,12.524" style="fill:none;stroke-width:0.050000mm;stroke:black"/>
<polygon points="50.625,12.524 50.625,26.525 64.625,26.525 64.625,12.524" style="fill:none;stroke-width:0.050000mm;stroke:black"/>
<polygon points="69.675,12.524 69.675,26.525 83.675,26.525 83.675,12.524" style="fill:none;stroke-width:0.050000mm;stroke:black"/>
<polygon points="93.487,12.524 93.487,26.525 107.487,26.525 107.487,12.524" style="fill:none;stroke-width:0.050000mm;stroke:black"/>
<polygon points="112.127,6.311 111.778,6.488 111.502,6.765 111.324,7.113 111.263,7.500 111.324,7.886 111.502,8.234 111.778,8.511 112.127,8.688 112.513,8.750 112.899,8.688 113.248,8.511 113.524,8.234 113.702,7.886 113.763,7.500 113.702,7.113 113.524,6.765 113.248,6.488 112.899,6.311 112.513,6.250" style="fill:none;stroke-width:0.050000mm;stroke:black"/>
<polygon points="7.113,6.311 6.765,6.488 6.488,6.765 6.311,7.113 6.249,7.500 6.311,7.886 6.488,8.234 6.765,8.511 7.113,8.688 7.499,8.750 7.886,8.688 8.234,8.511 8.511,8.234 8.688,7.886 8.750,7.500 8.688,7.113 8.511,6.765 8.234,6.488 7.886,6.311 7.500,6.250" style="fill:none;stroke-width:0.050000mm;stroke:black"/>
</svg>
