<?xml version="1.0"?>
<!-- Generated by SVGo -->
<svg width="120.013mm" height="139.063mm"
     viewBox="0.000 0.000 120.013 139.063"
     xmlns="http://www.w3.org/2000/svg" 
     xmlns:xlink="http://www.w3.org/1999/xlink">
<polygon points="115.013,134.063 5.000,134.063 5.000,5.000 115.013,5.000" style="fill:none;stroke-width:0.050000mm;stroke:black"/>
<polygon points="112.127,130.374 111.778,130.551 111.502,130.828 111.324,131.177 111.263,131.563 111.324,131.949 111.502,132.298 111.778,132.574 112.127,132.752 112.513,132.813 112.899,132.752 113.248,132.574 113.524,132.298 113.702,131.949 113.763,131.563 113.702,131.177 113.524,130.828 113.248,130.551 112.899,130.374 112.513,130.312" style="fill:none;stroke-width:0.050000mm;stroke:black"/>
<polygon points="7.113,130.374 6.765,130.551 6.488,130.828 6.311,131.177 6.249,131.563 6.311,131.949 6.488,132.298 6.765,132.574 7.113,132.752 7.499,132.813 7.886,132.752 8.234,132.574 8.511,132.298 8.688,131.949 8.750,131.563 8.688,131.177 8.511,130.828 8.234,130.551 7.886,130.374 7.500,130.312" style="fill:none;stroke-width:0.050000mm;stroke:black"/>
<polygon points="112.127,6.311 111.778,6.488 111.502,6.765 111.324,7.113 111.263,7.500 111.324,7.886 111.502,8.234 111.778,8.511 112.127,8.688 112.513,8.750 112.899,8.688 113.248,8.511 113.524,8.234 113.702,7.886 113.763,7.500 113.702,7.113 113.524,6.765 113.248,6.488 112.899,6.311 112.513,6.250" style="fill:none;stroke-width:0.050000mm;stroke:black"/>
<polygon points="7.113,6.311 6.765,6.488 6.488,6.765 6.311,7.113 6.249,7.500 6.311,7.886 6.488,8.234 6.765,8.511 7.113,8.688 7.499,8.750 7.886,8.688 8.234,8.511 8.511,8.234 8.688,7.886 8.750,7.500 8.688,7.113 8.511,6.765 8.234,6.488 7.886,6.311 7.500,6.250" style="fill:none;stroke-width:0.050000mm;stroke:black"/>
</svg>
